<mxfile host="app.diagrams.net" modified="2022-08-05T14:33:23.156Z" agent="5.0 (Windows NT 10.0; Win64; x64) AppleWebKit/537.36 (KHTML, like Gecko) Chrome/103.0.0.0 Safari/537.36" etag="pJ60xtK2TWEuuBVpICzS" version="20.2.3" type="github">
  <diagram id="C5RBs43oDa-KdzZeNtuy" name="修改角色菜单">
    <mxGraphModel dx="1550" dy="375" grid="1" gridSize="10" guides="1" tooltips="1" connect="1" arrows="1" fold="1" page="1" pageScale="1" pageWidth="827" pageHeight="1169" math="0" shadow="0">
      <root>
        <mxCell id="WIyWlLk6GJQsqaUBKTNV-0" />
        <mxCell id="WIyWlLk6GJQsqaUBKTNV-1" parent="WIyWlLk6GJQsqaUBKTNV-0" />
        <mxCell id="WIyWlLk6GJQsqaUBKTNV-2" value="" style="rounded=0;html=1;jettySize=auto;orthogonalLoop=1;fontSize=11;endArrow=block;endFill=0;endSize=8;strokeWidth=1;shadow=0;labelBackgroundColor=none;edgeStyle=orthogonalEdgeStyle;" parent="WIyWlLk6GJQsqaUBKTNV-1" source="WIyWlLk6GJQsqaUBKTNV-3" target="WIyWlLk6GJQsqaUBKTNV-6" edge="1">
          <mxGeometry relative="1" as="geometry" />
        </mxCell>
        <mxCell id="WIyWlLk6GJQsqaUBKTNV-3" value="根据role_id找到Role对象" style="rounded=1;whiteSpace=wrap;html=1;fontSize=12;glass=0;strokeWidth=1;shadow=0;" parent="WIyWlLk6GJQsqaUBKTNV-1" vertex="1">
          <mxGeometry x="30" y="120" width="140" height="40" as="geometry" />
        </mxCell>
        <mxCell id="WIyWlLk6GJQsqaUBKTNV-5" value="Yes" style="edgeStyle=orthogonalEdgeStyle;rounded=0;html=1;jettySize=auto;orthogonalLoop=1;fontSize=11;endArrow=block;endFill=0;endSize=8;strokeWidth=1;shadow=0;labelBackgroundColor=none;" parent="WIyWlLk6GJQsqaUBKTNV-1" source="WIyWlLk6GJQsqaUBKTNV-6" target="WIyWlLk6GJQsqaUBKTNV-7" edge="1">
          <mxGeometry y="10" relative="1" as="geometry">
            <mxPoint as="offset" />
          </mxGeometry>
        </mxCell>
        <mxCell id="wtTNcSMter86V7uV38JC-9" value="" style="edgeStyle=orthogonalEdgeStyle;rounded=0;orthogonalLoop=1;jettySize=auto;html=1;fontSize=11;" edge="1" parent="WIyWlLk6GJQsqaUBKTNV-1" source="WIyWlLk6GJQsqaUBKTNV-6" target="wtTNcSMter86V7uV38JC-3">
          <mxGeometry relative="1" as="geometry" />
        </mxCell>
        <mxCell id="WIyWlLk6GJQsqaUBKTNV-6" value="&lt;pre style=&quot;color: rgb(8, 8, 8); font-family: &amp;quot;JetBrains Mono&amp;quot;; font-size: 11px;&quot;&gt;&lt;font style=&quot;font-size: 11px;&quot;&gt;getLevels&lt;/font&gt;&lt;/pre&gt;&lt;pre style=&quot;color: rgb(8, 8, 8); font-family: &amp;quot;JetBrains Mono&amp;quot;; font-size: 11px;&quot;&gt;&lt;font style=&quot;font-size: 11px;&quot;&gt;(&lt;span style=&quot;color: rgb(0, 0, 0); font-size: 11px;&quot;&gt;role&lt;/span&gt;.getLevel());&lt;/font&gt;&lt;/pre&gt;" style="rhombus;whiteSpace=wrap;html=1;shadow=0;fontFamily=Helvetica;fontSize=12;align=center;strokeWidth=1;spacing=6;spacingTop=-4;fillColor=none;" parent="WIyWlLk6GJQsqaUBKTNV-1" vertex="1">
          <mxGeometry x="10" y="210" width="180" height="80" as="geometry" />
        </mxCell>
        <mxCell id="WIyWlLk6GJQsqaUBKTNV-7" value="&lt;pre style=&quot;background-color:#ffffff;color:#080808;font-family:&#39;宋体&#39;;font-size:10.5pt;&quot;&gt;&lt;span style=&quot;color:#067d17;&quot;&gt;权限不足&lt;/span&gt;&lt;/pre&gt;" style="rounded=1;whiteSpace=wrap;html=1;fontSize=12;glass=0;strokeWidth=1;shadow=0;" parent="WIyWlLk6GJQsqaUBKTNV-1" vertex="1">
          <mxGeometry x="250" y="230" width="120" height="40" as="geometry" />
        </mxCell>
        <mxCell id="WIyWlLk6GJQsqaUBKTNV-11" value="返回Response" style="rounded=1;whiteSpace=wrap;html=1;fontSize=12;glass=0;strokeWidth=1;shadow=0;" parent="WIyWlLk6GJQsqaUBKTNV-1" vertex="1">
          <mxGeometry x="40" y="441" width="120" height="40" as="geometry" />
        </mxCell>
        <mxCell id="wtTNcSMter86V7uV38JC-0" value="&lt;h1&gt;输入参数&lt;/h1&gt;&lt;pre style=&quot;background-color:#ffffff;color:#080808;font-family:&#39;JetBrains Mono&#39;;font-size:10.5pt;&quot;&gt;&lt;span style=&quot;color:#000000;&quot;&gt;ResponseEntity&lt;/span&gt;&amp;lt;&lt;span style=&quot;color:#000000;&quot;&gt;Object&lt;/span&gt;&amp;gt; &lt;span style=&quot;color:#00627a;&quot;&gt;updateRoleMenu&lt;/span&gt;(&lt;span style=&quot;color:#9e880d;&quot;&gt;@RequestBody &lt;/span&gt;&lt;span style=&quot;color:#000000;&quot;&gt;Role &lt;/span&gt;resources)&lt;/pre&gt;" style="text;html=1;strokeColor=none;fillColor=none;spacing=5;spacingTop=-20;whiteSpace=wrap;overflow=hidden;rounded=0;" vertex="1" parent="WIyWlLk6GJQsqaUBKTNV-1">
          <mxGeometry x="-510" y="80" width="520" height="80" as="geometry" />
        </mxCell>
        <mxCell id="wtTNcSMter86V7uV38JC-1" value="如果没有就构造一个" style="text;html=1;strokeColor=none;fillColor=none;align=center;verticalAlign=middle;whiteSpace=wrap;rounded=0;" vertex="1" parent="WIyWlLk6GJQsqaUBKTNV-1">
          <mxGeometry x="190" y="125" width="110" height="30" as="geometry" />
        </mxCell>
        <mxCell id="wtTNcSMter86V7uV38JC-2" value="根据当前用户id找到其所有角色对应的等级&lt;br&gt;从所有等级中找到数字最小的min&lt;br&gt;比较要修改的角色level与min&lt;br&gt;level &amp;lt; min?" style="text;html=1;strokeColor=none;fillColor=none;align=left;verticalAlign=middle;whiteSpace=wrap;rounded=0;" vertex="1" parent="WIyWlLk6GJQsqaUBKTNV-1">
          <mxGeometry x="-230" y="210" width="230" height="70" as="geometry" />
        </mxCell>
        <mxCell id="wtTNcSMter86V7uV38JC-10" value="" style="edgeStyle=orthogonalEdgeStyle;rounded=0;orthogonalLoop=1;jettySize=auto;html=1;fontSize=11;" edge="1" parent="WIyWlLk6GJQsqaUBKTNV-1" source="wtTNcSMter86V7uV38JC-3" target="WIyWlLk6GJQsqaUBKTNV-11">
          <mxGeometry relative="1" as="geometry" />
        </mxCell>
        <mxCell id="wtTNcSMter86V7uV38JC-3" value="传入要目标Role与原Role" style="rounded=1;whiteSpace=wrap;html=1;fontSize=12;glass=0;strokeWidth=1;shadow=0;" vertex="1" parent="WIyWlLk6GJQsqaUBKTNV-1">
          <mxGeometry x="30" y="340" width="140" height="40" as="geometry" />
        </mxCell>
        <mxCell id="wtTNcSMter86V7uV38JC-5" value="&lt;pre style=&quot;font-style: normal; font-variant-ligatures: normal; font-variant-caps: normal; font-weight: 400; letter-spacing: normal; orphans: 2; text-align: left; text-indent: 0px; text-transform: none; widows: 2; word-spacing: 0px; -webkit-text-stroke-width: 0px; text-decoration-thickness: initial; text-decoration-style: initial; text-decoration-color: initial; background-color: rgb(255, 255, 255); color: rgb(8, 8, 8); font-family: &amp;quot;JetBrains Mono&amp;quot;; font-size: 10.5pt;&quot;&gt;&lt;br&gt;&lt;/pre&gt;" style="text;whiteSpace=wrap;html=1;fontSize=11;" vertex="1" parent="WIyWlLk6GJQsqaUBKTNV-1">
          <mxGeometry x="240" y="90" width="290" height="70" as="geometry" />
        </mxCell>
        <mxCell id="wtTNcSMter86V7uV38JC-7" value="&lt;pre style=&quot;background-color:#ffffff;color:#080808;font-family:&#39;JetBrains Mono&#39;;font-size:10.5pt;&quot;&gt;&lt;span style=&quot;color:#871094;&quot;&gt;roleService&lt;/span&gt;.findById(resources.getId())&lt;/pre&gt;" style="text;whiteSpace=wrap;html=1;fontSize=11;" vertex="1" parent="WIyWlLk6GJQsqaUBKTNV-1">
          <mxGeometry x="190" y="90" width="290" height="70" as="geometry" />
        </mxCell>
        <mxCell id="wtTNcSMter86V7uV38JC-8" value="&lt;pre style=&quot;background-color:#ffffff;color:#080808;font-family:&#39;JetBrains Mono&#39;;font-size:10.5pt;&quot;&gt;&lt;span style=&quot;color:#871094;&quot;&gt;roleService&lt;/span&gt;.updateMenu(resources,&lt;span style=&quot;color:#000000;&quot;&gt;role&lt;/span&gt;)&lt;/pre&gt;&lt;pre style=&quot;background-color:#ffffff;color:#080808;font-family:&#39;JetBrains Mono&#39;;font-size:10.5pt;&quot;&gt;role是原Role,是RoleRto类型&lt;/pre&gt;&lt;pre style=&quot;background-color:#ffffff;color:#080808;font-family:&#39;JetBrains Mono&#39;;font-size:10.5pt;&quot;&gt;resource是目标Role,Role类型&lt;/pre&gt;" style="text;whiteSpace=wrap;html=1;fontSize=11;" vertex="1" parent="WIyWlLk6GJQsqaUBKTNV-1">
          <mxGeometry x="180" y="330" width="300" height="110" as="geometry" />
        </mxCell>
        <mxCell id="wtTNcSMter86V7uV38JC-11" value="原Role转为Role类型" style="rounded=1;whiteSpace=wrap;html=1;fontSize=12;glass=0;strokeWidth=1;shadow=0;" vertex="1" parent="WIyWlLk6GJQsqaUBKTNV-1">
          <mxGeometry x="460" y="340" width="140" height="40" as="geometry" />
        </mxCell>
      </root>
    </mxGraphModel>
  </diagram>
</mxfile>
